<svg xmlns="http://www.w3.org/2000/svg" xmlns:xlink="http://www.w3.org/1999/xlink" id="svg559" width="80" height="80" x="0" y="0" version="1.0"><defs id="defs561"><linearGradient id="linearGradient579"><stop style="stop-color:#fff;stop-opacity:1" id="stop580" offset="0"/><stop style="stop-color:#656566;stop-opacity:1" id="stop581" offset="1"/></linearGradient><linearGradient id="linearGradient564"><stop style="stop-color:#f07f7d;stop-opacity:1" id="stop565" offset="0"/><stop style="stop-color:#620000;stop-opacity:1" id="stop566" offset="1"/></linearGradient><linearGradient id="linearGradient567" x1=".302" x2=".888" y1=".617" y2=".602" xlink:href="#linearGradient579"/><radialGradient id="radialGradient568" cx=".277" cy=".508" r=".704" fx=".277" fy=".508" xlink:href="#linearGradient564"/><radialGradient id="radialGradient570" cx=".229" cy=".203" r="1.809" fx=".229" fy=".203" xlink:href="#linearGradient564"/><radialGradient id="radialGradient572" cx=".043" cy=".497" r="2.403" fx=".043" fy=".497" xlink:href="#linearGradient564"/><radialGradient id="radialGradient574" cx=".232" cy="-2.547" r="6.407" fx=".232" fy="-2.547" xlink:href="#linearGradient564"/><radialGradient id="radialGradient582" cx=".678" cy=".328" r=".743" fx=".678" fy=".328" xlink:href="#linearGradient579"/></defs><g id="g1032"><path style="fill:url(#radialGradient568);stroke:#960000;stroke-width:2.5" id="path572" d="M 360.4717 51.12511 C 344.2768 52.36496 333.8589 55.91560 318.8194 68.70979 C 303.8897 85.65758 287.6176 103.5574 281.8405 130.4836 C 272.2701 189.4130 312.7988 212.1533 328.4660 220.5191 C 343.4720 225.8783 357.9002 233.5485 373.4838 236.5968 C 386.8819 238.6815 400.2801 237.3000 413.6782 234.1853 C 447.8076 217.5444 459.9840 176.0620 467.5387 146.1336 C 471.2729 127.5532 470.9877 105.7130 461.9114 94.30870 C 450.8651 79.21104 428.8422 63.53577 401.0422 55.94849 C 385.4349 49.14116 372.0604 49.39194 360.4717 51.12511 z" transform="matrix(0.386209,0.000000,0.000000,0.386209,-105.0170,-14.62676)"/><ellipse style="fill:url(#radialGradient570);fill-rule:evenodd" id="path569" cx="138.644" cy="103.566" rx="65.146" ry="46.772" transform="matrix(0.435723,0.000000,0.000000,0.446636,-21.93232,-18.82671)"/><ellipse style="fill:url(#radialGradient572);fill-rule:evenodd" id="path571" cx="367.492" cy="182.075" rx="60.135" ry="28.397" transform="matrix(0.379942,0.156575,-0.151138,0.393608,-81.12441,-67.58463)"/><ellipse style="fill:url(#radialGradient574);fill-rule:evenodd" id="path573" cx="481.08" cy="188.757" rx="60.135" ry="21.715" transform="matrix(0.128262,-0.308075,0.208654,0.189377,-34.50172,164.2841)"/><ellipse style="fill:url(#radialGradient582);fill-rule:evenodd" id="path575" cx="374.173" cy="110.247" rx="16.704" ry="13.363" transform="matrix(0.463455,0.000000,0.000000,0.434484,-142.0087,-33.21316)"/><ellipse style="fill:url(#radialGradient582);fill-rule:evenodd" id="ellipse588" cx="374.173" cy="110.247" rx="16.704" ry="13.363" transform="matrix(0.463455,0.000000,0.000000,0.434484,-128.9297,-8.794317)"/><ellipse style="fill:url(#radialGradient582);fill-rule:evenodd" id="ellipse618" cx="374.173" cy="110.247" rx="16.704" ry="13.363" transform="matrix(0.463455,0.000000,0.000000,0.434484,-153.5703,-15.65515)"/><ellipse style="fill:url(#radialGradient582);fill-rule:evenodd" id="ellipse619" cx="374.173" cy="110.247" rx="16.704" ry="13.363" transform="matrix(0.463455,0.000000,0.000000,0.434484,-118.0757,-26.18156)"/></g></svg>